<svg xmlns="http://www.w3.org/2000/svg" version="1.0" width="847.000000pt" height="893.000000pt" viewBox="0 0 847.000000 893.000000" preserveAspectRatio="xMidYMid meet">
<g transform="translate(0.000000,893.000000) scale(0.100000,-0.100000)" fill="#ffffff" stroke="#000000">
<path d="M4085 8568 c-110 -38 -315 -105 -455 -149 -471 -149 -1029 -303 -2455 -679 -171 -45 -322 -89 -337 -96 -46 -24 -99 -84 -125 -141 l-25 -55 5 -741 c6 -814 18 -1067 77 -1532 140 -1103 506 -2079 1073 -2859 116 -161 353 -453 367 -455 17 -2 215 188 301 288 350 407 636 986 1027 2076 220 613 342 1032 378 1298 9 65 14 120 12 122 -9 10 -139 -17 -248 -51 -438 -137 -741 -450 -934 -968 -40 -105 -96 -314 -117 -433 -20 -116 -23 -110 -59 132 -54 356 -30 685 71 990 109 327 330 583 687 796 383 228 896 353 1194 291 317 -66 498 -296 473 -597 -43 -494 -770 -2236 -1297 -3108 -238 -394 -435 -644 -739 -942 -254 -248 -514 -444 -849 -638 -129 -75 -343 -181 -460 -227 -58 -24 -107 -45 -110 -47 -8 -8 145 6 250 24 276 45 632 185 875 344 42 27 79 49 83 49 4 0 50 -37 102 -81 335 -285 921 -679 1319 -887 l124 -65 76 37 c192 95 470 261 735 439 145 98 460 328 469 345 3 4 2 28 -3 52 -5 25 -21 108 -35 185 -87 468 -234 866 -416 1125 -67 96 -221 254 -324 335 -124 97 -321 212 -486 285 l-96 42 142 296 c78 164 154 323 168 356 l27 58 47 -28 c307 -178 515 -337 723 -551 407 -417 591 -886 653 -1662 l12 -143 135 133 c426 421 811 952 1081 1491 299 598 521 1336 618 2056 79 585 101 981 101 1799 0 531 -1 566 -19 614 -24 63 -62 113 -109 144 -37 24 -98 41 -857 240 -1255 330 -1825 493 -2433 699 -107 37 -199 65 -205 65 -7 -1 -102 -33 -212 -71z m1065 -963 c150 -40 287 -150 354 -286 115 -233 74 -484 -108 -665 -109 -109 -219 -154 -376 -154 -254 0 -458 146 -541 387 -100 292 76 628 376 714 75 22 221 24 295 4z m145 -2137 c142 -270 241 -410 316 -449 53 -27 97 -34 385 -64 137 -14 299 -33 359 -41 167 -24 399 -86 496 -131 l84 -40 -45 -13 c-97 -27 -383 -90 -539 -119 -313 -59 -496 -82 -701 -88 -303 -9 -340 6 -540 214 -66 69 -120 131 -120 137 0 7 27 94 60 192 68 205 125 420 136 512 3 34 9 62 13 62 3 0 47 -78 96 -172z"/>
</g>
</svg>
